<?xml version="1.0" encoding="UTF-8" standalone="no"?>
<!-- Created with Inkscape (http://www.inkscape.org/) -->

<svg
   viewBox="0 0 239.30573 239.30573"
   version="1.1"
   id="svg5"
   xml:space="preserve"
   inkscape:version="1.2.1 (9c6d41e, 2022-07-14)"
   sodipodi:docname="pata-logo.svg"
   inkscape:export-filename="pata-logo.png"
   inkscape:export-xdpi="96"
   inkscape:export-ydpi="96"
   xmlns:inkscape="http://www.inkscape.org/namespaces/inkscape"
   xmlns:sodipodi="http://sodipodi.sourceforge.net/DTD/sodipodi-0.dtd"
   xmlns="http://www.w3.org/2000/svg"
   xmlns:svg="http://www.w3.org/2000/svg"><sodipodi:namedview
     id="namedview7"
     pagecolor="#505050"
     bordercolor="#ffffff"
     borderopacity="1"
     inkscape:showpageshadow="0"
     inkscape:pageopacity="0"
     inkscape:pagecheckerboard="1"
     inkscape:deskcolor="#505050"
     inkscape:document-units="mm"
     showgrid="false"
     inkscape:zoom="1.7008899"
     inkscape:cx="50.855731"
     inkscape:cy="166.67746"
     inkscape:window-width="1920"
     inkscape:window-height="1027"
     inkscape:window-x="0"
     inkscape:window-y="25"
     inkscape:window-maximized="1"
     inkscape:current-layer="layer1" /><defs
     id="defs2"><inkscape:path-effect
       effect="spiro"
       id="path-effect1037"
       is_visible="true"
       lpeversion="1" /></defs><g
     inkscape:label="Layer 1"
     inkscape:groupmode="layer"
     id="layer1"
     transform="translate(19.685758,-3.7784064)"><g
       id="g10"
       transform="matrix(0.01631395,0,0,-0.01631395,2.3707442,195.5766)"
       style="fill:#ffffff;fill-opacity:1"><path
         d="M 7542.6,5441.63 C 6955.87,6125.38 6381.35,6312.19 5887.58,6273.01 5436.22,6312.19 4911.04,6125.38 4374.7,5441.63 2898.52,3559.77 2898.52,3559.77 2898.52,3559.77 c 0,0 -1600.44,-2223.07 1322.59,-1539.01 l -0.5,1.38 c 0,0 1445.85,1639.97 3420.85,50.86 40.55,-31.62 62.62,-50.86 62.62,-50.86 3206.62,-688.44 1453.37,1537.63 1453.37,1537.63 0,0 0,0 -1614.85,1881.86"
         style="fill:#ffffff;fill-opacity:1;fill-rule:nonzero;stroke:none"
         id="path12" /><path
         d="m 4952.86,6526.59 c 571.61,200.86 782.48,1093.87 471,1994.6 -311.49,900.72 -1027.38,1468.08 -1598.99,1267.22 -571.61,-200.86 -782.49,-1093.87 -471,-1994.59 311.48,-900.73 1027.37,-1468.09 1598.99,-1267.23"
         style="fill:#ffffff;fill-opacity:1;fill-rule:nonzero;stroke:none"
         id="path14" /><path
         d="m 7002.99,6486.86 c 585.53,-154.82 1254.84,467.64 1494.94,1390.31 240.09,922.67 -39.94,1796.15 -625.48,1950.97 -585.54,154.83 -1254.84,-467.64 -1494.94,-1390.31 -240.1,-922.66 39.94,-1796.15 625.48,-1950.97"
         style="fill:#ffffff;fill-opacity:1;fill-rule:nonzero;stroke:none"
         id="path16" /><path
         d="m 3434,4884.1 c 413.64,319.46 369.33,1077.88 -98.96,1693.96 -468.29,616.08 -1183.22,856.52 -1596.85,537.06 C 1324.56,6795.64 1368.87,6037.23 1837.16,5421.15 2305.44,4805.08 3020.38,4564.63 3434,4884.1"
         style="fill:#ffffff;fill-opacity:1;fill-rule:nonzero;stroke:none"
         id="path18" /><path
         d="m 10299.8,7277.99 c -375.81,378.86 -1127,235.89 -1677.79,-319.33 -550.8,-555.22 -692.64,-1312.43 -316.8,-1691.29 375.84,-378.85 1127.03,-235.89 1677.83,319.34 550.76,555.21 692.66,1312.43 316.76,1691.28"
         style="fill:#ffffff;fill-opacity:1;fill-rule:nonzero;stroke:none"
         id="path20" /></g><g
       aria-label="PATA"
       id="text366"
       style="font-size:50.8px;line-height:1.25;fill:#ffffff;stroke-width:1.08678;fill-opacity:1"><path
         d="m 62.958508,177.08383 q 5.432227,0 8.036719,2.72851 2.629297,2.70372 2.629297,8.18555 0,2.77813 -0.669727,4.96094 -0.669727,2.18281 -2.033984,3.7207 -1.339453,1.51309 -3.373438,2.30684 -2.033984,0.79375 -4.812109,0.79375 h -2.182813 v 13.56816 h -5.457031 v -36.26445 z m -0.347265,4.68809 h -2.05879 v 13.29531 h 1.661915 q 2.033984,0 3.348632,-0.69453 1.314649,-0.71934 1.934766,-2.25723 0.644922,-1.5627 0.644922,-4.06797 0,-3.32383 -1.364258,-4.7873 -1.339453,-1.48828 -4.167187,-1.48828 z"
         style="font-weight:600;font-stretch:condensed;font-family:'Open Sans';-inkscape-font-specification:'Open Sans Semi-Bold Condensed';fill:#ffffff;fill-opacity:1"
         id="path423" /><path
         d="m 93.964367,213.34828 -2.306836,-10.19472 h -8.334374 l -2.306836,10.19472 h -5.853906 l 8.780859,-36.26445 h 6.895703 l 8.929687,36.26445 z m -3.224609,-15.05644 -2.356445,-10.93887 q -0.198438,-1.0666 -0.372071,-2.05879 -0.173632,-1.01699 -0.32246,-1.95957 -0.148829,-0.94258 -0.272852,-1.81074 -0.07441,0.84336 -0.223242,1.78594 -0.124024,0.94257 -0.322461,1.93476 -0.173633,0.99219 -0.396875,2.03399 l -2.306836,11.01328 z"
         style="font-weight:600;font-stretch:condensed;font-family:'Open Sans';-inkscape-font-specification:'Open Sans Semi-Bold Condensed';fill:#ffffff;fill-opacity:1"
         id="path425" /><path
         d="m 112.6919,213.34828 h -5.40742 v -31.47715 h -6.92051 v -4.7873 h 19.22364 v 4.7873 h -6.89571 z"
         style="font-weight:600;font-stretch:condensed;font-family:'Open Sans';-inkscape-font-specification:'Open Sans Semi-Bold Condensed';fill:#ffffff;fill-opacity:1"
         id="path427" /><path
         d="m 139.03448,213.34828 -2.30683,-10.19472 h -8.33438 l -2.30684,10.19472 h -5.8539 l 8.78086,-36.26445 h 6.8957 l 8.92969,36.26445 z m -3.22461,-15.05644 -2.35644,-10.93887 q -0.19844,-1.0666 -0.37207,-2.05879 -0.17364,-1.01699 -0.32246,-1.95957 -0.14883,-0.94258 -0.27286,-1.81074 -0.0744,0.84336 -0.22324,1.78594 -0.12402,0.94257 -0.32246,1.93476 -0.17363,0.99219 -0.39687,2.03399 l -2.30684,11.01328 z"
         style="font-weight:600;font-stretch:condensed;font-family:'Open Sans';-inkscape-font-specification:'Open Sans Semi-Bold Condensed';fill:#ffffff;fill-opacity:1"
         id="path429" /></g><circle
       id="path1102"
       style="fill:#1a1a1a;stroke:#ffffff;stroke-width:0.264583"
       cx="99.967102"
       cy="122.20918"
       r="0.065112568" /><circle
       id="path1104"
       style="fill:#1a1a1a;stroke:#ffffff;stroke-width:0.264583"
       cx="99.967102"
       cy="140.29611"
       r="0.065112568" /></g></svg>
