<svg xmlns="http://www.w3.org/2000/svg" version="1.1" xmlns:xlink="http://www.w3.org/1999/xlink" xmlns:svgjs="http://svgjs.com/svgjs" width="239.30573mm" height="239.30573mm"><svg width="239.30573mm" height="239.30573mm" viewBox="0 0 239.30573 239.30573" version="1.1" id="SvgjsSvg1011" xml:space="preserve" xmlns="http://www.w3.org/2000/svg" xmlns:svg="http://www.w3.org/2000/svg"><defs id="SvgjsDefs1010"></defs><g id="SvgjsG1009" transform="translate(19.685758,-3.7784064)"><circle style="opacity:1;fill:#ffffff;stroke:#ffffff;stroke-width:0.264583" id="SvgjsCircle1008" cx="99.967102" cy="123.43127" r="119.52057"></circle><g id="SvgjsG1007" transform="matrix(0.01631395,0,0,-0.01631395,2.3707442,219.20869)" style="fill:#c83737"><path d="M 7542.6,5441.63 C 6955.87,6125.38 6381.35,6312.19 5887.58,6273.01 5436.22,6312.19 4911.04,6125.38 4374.7,5441.63 2898.52,3559.77 2898.52,3559.77 2898.52,3559.77 c 0,0 -1600.44,-2223.07 1322.59,-1539.01 l -0.5,1.38 c 0,0 1445.85,1639.97 3420.85,50.86 40.55,-31.62 62.62,-50.86 62.62,-50.86 3206.62,-688.44 1453.37,1537.63 1453.37,1537.63 0,0 0,0 -1614.85,1881.86" style="fill:#c83737;fill-opacity:1;fill-rule:nonzero;stroke:none" id="SvgjsPath1006"></path><path d="m 4952.86,6526.59 c 571.61,200.86 782.48,1093.87 471,1994.6 -311.49,900.72 -1027.38,1468.08 -1598.99,1267.22 -571.61,-200.86 -782.49,-1093.87 -471,-1994.59 311.48,-900.73 1027.37,-1468.09 1598.99,-1267.23" style="fill:#c83737;fill-opacity:1;fill-rule:nonzero;stroke:none" id="SvgjsPath1005"></path><path d="m 7002.99,6486.86 c 585.53,-154.82 1254.84,467.64 1494.94,1390.31 240.09,922.67 -39.94,1796.15 -625.48,1950.97 -585.54,154.83 -1254.84,-467.64 -1494.94,-1390.31 -240.1,-922.66 39.94,-1796.15 625.48,-1950.97" style="fill:#c83737;fill-opacity:1;fill-rule:nonzero;stroke:none" id="SvgjsPath1004"></path><path d="m 3434,4884.1 c 413.64,319.46 369.33,1077.88 -98.96,1693.96 -468.29,616.08 -1183.22,856.52 -1596.85,537.06 C 1324.56,6795.64 1368.87,6037.23 1837.16,5421.15 2305.44,4805.08 3020.38,4564.63 3434,4884.1" style="fill:#c83737;fill-opacity:1;fill-rule:nonzero;stroke:none" id="SvgjsPath1003"></path><path d="m 10299.8,7277.99 c -375.81,378.86 -1127,235.89 -1677.79,-319.33 -550.8,-555.22 -692.64,-1312.43 -316.8,-1691.29 375.84,-378.85 1127.03,-235.89 1677.83,319.34 550.76,555.21 692.66,1312.43 316.76,1691.28" style="fill:#c83737;fill-opacity:1;fill-rule:nonzero;stroke:none" id="SvgjsPath1002"></path></g><circle id="SvgjsCircle1001" style="fill:#1a1a1a;stroke:#ffffff;stroke-width:0.264583" cx="99.967102" cy="122.20918" r="0.065112568"></circle><circle id="SvgjsCircle1000" style="fill:#1a1a1a;stroke:#ffffff;stroke-width:0.264583" cx="99.967102" cy="140.29611" r="0.065112568"></circle></g></svg><style>@media (prefers-color-scheme: light) { :root { filter: none; } }
@media (prefers-color-scheme: dark) { :root { filter: contrast(0.8333333333333334) brightness(1.7); } }
</style></svg>